<svg width="408" height="89" viewBox="0 0 408 89" fill="none" xmlns="http://www.w3.org/2000/svg">
<path fill-rule="evenodd" clip-rule="evenodd" d="M67.5774 9.52796V6.67998C67.5774 4.64763 65.9246 2.99933 63.8868 2.99933H54.5696C52.5312 2.99933 50.879 4.64763 50.879 6.67998V8.72172H13.0527C8.20809 8.72172 1 11.9232 1 20.7426V70.4501C1 75.2823 4.21014 82.471 13.0527 82.471H62.8994C67.7446 82.471 74.9527 79.2695 74.9527 70.4501V20.7426C74.9527 16.8857 72.9013 11.5339 67.5774 9.52796" fill="#FF2636"/>
<path fill-rule="evenodd" clip-rule="evenodd" d="M61.6511 43.3949H55.5517C54.3312 43.3949 53.342 44.382 53.342 45.5987C53.342 46.8154 54.3312 47.8025 55.5517 47.8025H61.6511C62.8711 47.8025 63.8609 46.8154 63.8609 45.5987C63.8609 44.382 62.8711 43.3949 61.6511 43.3949" fill="#FFFFFE"/>
<path fill-rule="evenodd" clip-rule="evenodd" d="M52.0137 39.366C52.51 40.4782 53.816 40.9779 54.9312 40.4823L60.503 38.0084C61.6176 37.5139 62.1192 36.2109 61.6229 35.0993C61.1265 33.9877 59.8205 33.4874 58.7054 33.9824L53.1335 36.457C52.0184 36.952 51.5173 38.2538 52.0137 39.366" fill="#FFFFFE"/>
<path fill-rule="evenodd" clip-rule="evenodd" d="M51.3783 34.0476L55.4599 29.5273C56.2765 28.6229 56.2029 27.2295 55.2962 26.415C54.3894 25.6011 52.9922 25.674 52.1755 26.5783L48.0946 31.0986C47.2779 32.0029 47.3509 33.3964 48.2577 34.2109C49.165 35.0247 50.5622 34.9519 51.3783 34.0476" fill="#FFFFFE"/>
<path fill-rule="evenodd" clip-rule="evenodd" d="M45.5092 61.5879C45.1318 60.4299 43.8859 59.7969 42.7253 60.1733C42.7236 60.1739 42.7224 60.1745 42.7212 60.1745C41.2262 60.6583 39.633 60.9232 37.9767 60.9232C29.4909 60.9232 22.6113 54.0622 22.6113 45.5987C22.6113 37.1358 29.4909 30.2754 37.9767 30.2754C39.633 30.2754 41.2263 30.5396 42.7206 31.0229C42.7218 31.0235 42.7236 31.0241 42.7247 31.0246C43.8853 31.4011 45.1318 30.7674 45.5092 29.6101L47.3933 23.8248C47.7708 22.6674 47.1354 21.4243 45.9749 21.0485V21.0473C43.4554 20.2311 40.7688 19.7848 37.9767 19.7848C23.6812 19.7848 12.093 31.3423 12.093 45.5987C12.093 59.8556 23.6812 71.4126 37.9767 71.4126C40.7688 71.4126 43.4554 70.9663 45.9749 70.1506V70.1501C45.9749 70.1495 45.9749 70.1495 45.9755 70.1495C47.136 69.7731 47.7708 68.5305 47.3939 67.3725L45.5092 61.5879" fill="#FFFFFE"/>
<path fill-rule="evenodd" clip-rule="evenodd" d="M51.3789 57.1498C50.5622 56.2455 49.165 56.1726 48.2583 56.9871C47.3509 57.8016 47.2785 59.1944 48.0946 60.0993L52.1761 64.6197C52.9928 65.524 54.3894 65.5968 55.2968 64.7824C56.2035 63.9685 56.2765 62.5744 55.4599 61.6701L51.3789 57.1498" fill="#FFFFFE"/>
<path fill-rule="evenodd" clip-rule="evenodd" d="M60.5029 53.189L54.9311 50.7145C53.8159 50.2195 52.51 50.7198 52.0136 51.8314C51.5173 52.9436 52.0189 54.246 53.1335 54.741L58.7053 57.2149C59.8205 57.71 61.1265 57.2102 61.6228 56.0981C62.1192 54.9871 61.6175 53.684 60.5029 53.189" fill="#FFFFFE"/>
<path d="M103.952 88.0364C105.328 88.0364 106.245 87.3944 106.703 86.2023L130.088 29.9874C130.73 28.4284 129.813 27.0528 128.07 27.0528H124.035C122.66 27.0528 121.743 27.6948 121.284 28.9786L111.93 51.9048C111.655 52.9135 110.371 52.9135 110.096 51.9048L100.926 29.0703C100.559 27.6948 99.642 27.0528 98.1747 27.0528H93.2227C91.4803 27.0528 90.5632 28.4284 91.2052 29.9874L105.694 64.8351C105.97 65.5688 105.97 66.2107 105.694 66.8526L97.7162 85.4686C97.0743 86.8442 97.9913 88.0364 99.4586 88.0364H103.952Z" fill="#6D6E71"/>
<path d="M148.025 69.2369C153.619 69.2369 158.112 67.1277 161.322 62.8176C161.964 61.9923 162.789 62.1757 162.881 63.001L162.973 65.7522C163.248 67.1277 164.073 67.8614 165.449 67.8614H168.842C170.217 67.8614 171.409 66.6692 171.409 65.2936V29.6206C171.409 28.1533 170.217 27.0528 168.842 27.0528H165.449C164.256 27.0528 163.064 27.8782 162.973 29.0703L162.881 31.8215C162.789 32.6468 161.964 32.8302 161.322 32.0966C158.112 27.7865 153.71 25.6773 148.025 25.6773C142.247 25.6773 137.295 27.7865 133.352 32.0049C129.409 36.1316 127.391 41.267 127.391 47.4113C127.391 53.5555 129.409 58.6909 133.352 62.9093C137.295 67.1277 142.247 69.2369 148.025 69.2369ZM149.4 34.4809C152.977 34.4809 156.003 35.7648 158.479 38.2408C160.955 40.7168 162.239 43.8348 162.239 47.4113C162.239 50.9877 160.955 54.1057 158.479 56.5817C156.003 59.0577 152.977 60.3416 149.4 60.3416C145.824 60.3416 142.706 59.0577 140.23 56.5817C137.754 54.1057 136.562 50.9877 136.562 47.4113C136.562 43.8348 137.754 40.7168 140.23 38.2408C142.706 35.7648 145.824 34.4809 149.4 34.4809Z" fill="#6D6E71"/>
<path d="M212.505 62.9093C216.815 58.6909 218.924 53.5555 218.924 47.4113C218.924 41.267 216.815 36.1316 212.505 32.0049C208.286 27.7865 203.059 25.6773 196.915 25.6773C190.771 25.6773 185.543 27.7865 181.233 32.0049C177.015 36.1316 174.906 41.267 174.906 47.4113C174.906 53.5555 177.015 58.6909 181.233 62.9093C185.543 67.1277 190.771 69.2369 196.915 69.2369C203.059 69.2369 208.286 67.1277 212.505 62.9093ZM196.915 34.4809C200.491 34.4809 203.517 35.7648 205.993 38.2408C208.47 40.7168 209.753 43.8348 209.753 47.4113C209.753 50.9877 208.47 54.1057 205.993 56.5817C203.517 59.0577 200.491 60.3416 196.915 60.3416C193.338 60.3416 190.22 59.0577 187.744 56.5817C185.268 54.1057 184.076 50.9877 184.076 47.4113C184.076 43.8348 185.268 40.7168 187.744 38.2408C190.22 35.7648 193.338 34.4809 196.915 34.4809Z" fill="#6D6E71"/>
<path d="M228.912 67.8614C230.38 67.8614 231.48 66.6692 231.48 65.2936V42.4592C231.48 41.7256 231.755 40.9919 232.214 40.35C234.69 36.4984 237.624 34.5726 240.834 34.5726C245.328 34.5726 247.528 37.0486 247.528 42.0007V65.2936C247.528 66.6692 248.721 67.8614 250.096 67.8614H254.131C255.598 67.8614 256.699 66.6692 256.699 65.2936V39.0661C256.699 30.6293 251.655 25.6773 243.86 25.6773C239.825 25.6773 236.249 27.328 233.131 30.5376C232.489 31.1795 231.48 30.721 231.48 29.8957V2.56773C231.48 1.10045 230.38 0 228.912 0H224.877C223.502 0 222.31 1.10045 222.31 2.56773V65.2936C222.31 66.6692 223.502 67.8614 224.877 67.8614H228.912Z" fill="#6D6E71"/>
<path d="M278.987 69.2369C284.031 69.2369 288.158 67.678 291.368 64.4683C294.577 61.2586 296.228 57.1319 296.228 51.9965V29.6206C296.228 28.1533 295.036 27.0528 293.66 27.0528H289.625C288.158 27.0528 287.057 28.1533 287.057 29.6206V52.1799C287.057 57.0402 283.756 60.2499 278.987 60.2499C274.219 60.2499 271.009 57.0402 271.009 52.1799V29.6206C271.009 28.1533 269.817 27.0528 268.441 27.0528H264.406C262.939 27.0528 261.839 28.1533 261.839 29.6206V51.9965C261.839 57.1319 263.489 61.2586 266.699 64.4683C269.909 67.678 274.035 69.2369 278.987 69.2369Z" fill="#6D6E71"/>
<path d="M311.656 15.223C313.948 12.9303 313.948 9.07875 311.656 6.78614C309.363 4.49352 305.236 4.49352 302.76 6.78614C300.468 9.07875 300.468 12.9303 302.76 15.223C305.236 17.5156 309.363 17.5156 311.656 15.223ZM309.271 67.8614C310.647 67.8614 311.839 66.6692 311.839 65.2936V29.6206C311.839 28.1533 310.647 27.0528 309.271 27.0528H305.236C303.769 27.0528 302.669 28.1533 302.669 29.6206V65.2936C302.669 66.6692 303.769 67.8614 305.236 67.8614H309.271Z" fill="#6D6E71"/>
</svg>
